<svg width="200" height="200" viewBox="0 0 200 200" xmlns="http://www.w3.org/2000/svg">
  <!-- Body/Head -->
  <rect x="40" y="40" width="120" height="120" rx="20" fill="#2d2d2d" stroke="#89ca78" stroke-width="4"/>
  <!-- Antennas -->
  <line x1="100" y1="40" x2="100" y2="20" stroke="#89ca78" stroke-width="4"/>
  <circle cx="100" cy="15" r="5" fill="#89ca78"/>
  <!-- Eyes (Stars) -->
  <polygon points="70,80 75,95 60,95 72,105 68,120 80,110 92,120 88,105 100,95 85,95" fill="#89ca78"/>
  <polygon points="120,80 125,95 110,95 122,105 118,120 130,110 142,120 138,105 150,95 135,95" fill="#89ca78"/>
  <!-- Mouth (Big Smile) -->
  <path d="M 60 130 Q 100 160 140 130" stroke="#89ca78" stroke-width="4" fill="none" stroke-linecap="round"/>
  <!-- Victory Arms (Simple lines) -->
  <path d="M 30 100 L 10 70" stroke="#89ca78" stroke-width="4" stroke-linecap="round"/>
  <path d="M 170 100 L 190 70" stroke="#89ca78" stroke-width="4" stroke-linecap="round"/>
</svg>
